<?xml version="1.0" encoding="UTF-8" standalone="no"?>
<svg
   version="1.1"
   xml:space="preserve"
   width="600px"
   height="400px"
   viewBox="0 0 600 400"
   id="svg476"
   sodipodi:docname="fragment.svg"
   inkscape:version="1.1.1 (3bf5ae0d25, 2021-09-20)"
   xmlns:inkscape="http://www.inkscape.org/namespaces/inkscape"
   xmlns:sodipodi="http://sodipodi.sourceforge.net/DTD/sodipodi-0.dtd"
   xmlns="http://www.w3.org/2000/svg"
   xmlns:svg="http://www.w3.org/2000/svg"><defs
   id="defs480" /><sodipodi:namedview
   id="namedview478"
   pagecolor="#ffffff"
   bordercolor="#666666"
   borderopacity="1.0"
   inkscape:pageshadow="2"
   inkscape:pageopacity="0.0"
   inkscape:pagecheckerboard="0"
   showgrid="false"
   inkscape:zoom="2.8708535"
   inkscape:cx="326.03544"
   inkscape:cy="141.24719"
   inkscape:window-width="1920"
   inkscape:window-height="1001"
   inkscape:window-x="-9"
   inkscape:window-y="-9"
   inkscape:window-maximized="1"
   inkscape:current-layer="svg476" />
<!-- END OF HEADER -->



















<g
   id="g2989"><path
     class="bond-0 atom-0 atom-1"
     d="M 89.7,121.0 L 99.4,97.2"
     style="fill:none;fill-rule:evenodd;stroke:#000000;stroke-width:2.0px;stroke-linecap:butt;stroke-linejoin:miter;stroke-opacity:1"
     id="path4" /><path
     class="bond-0 atom-0 atom-1"
     d="M 87.1,117.0 L 94.7,98.4"
     style="fill:none;fill-rule:evenodd;stroke:#000000;stroke-width:2.0px;stroke-linecap:butt;stroke-linejoin:miter;stroke-opacity:1"
     id="path6" /><path
     class="bond-1 atom-1 atom-2"
     d="M 99.4,97.2 L 124.3,91.1"
     style="fill:none;fill-rule:evenodd;stroke:#000000;stroke-width:2.0px;stroke-linecap:butt;stroke-linejoin:miter;stroke-opacity:1"
     id="path8" /><path
     class="bond-2 atom-2 atom-3"
     d="M 124.3,91.1 L 142.1,109.6"
     style="fill:none;fill-rule:evenodd;stroke:#000000;stroke-width:2.0px;stroke-linecap:butt;stroke-linejoin:miter;stroke-opacity:1"
     id="path10" /><path
     class="bond-3 atom-1 atom-4"
     d="M 99.4,97.2 L 91.3,90.5"
     style="fill:none;fill-rule:evenodd;stroke:#000000;stroke-width:2.0px;stroke-linecap:butt;stroke-linejoin:miter;stroke-opacity:1"
     id="path12" /><path
     class="bond-3 atom-1 atom-4"
     d="M 91.3,90.5 L 83.3,83.7"
     style="fill:none;fill-rule:evenodd;stroke:#0000FF;stroke-width:2.0px;stroke-linecap:butt;stroke-linejoin:miter;stroke-opacity:1"
     id="path14" /><path
     class="bond-4 atom-4 atom-5"
     d="M 76.1,82.9 L 67.0,88.5"
     style="fill:none;fill-rule:evenodd;stroke:#0000FF;stroke-width:2.0px;stroke-linecap:butt;stroke-linejoin:miter;stroke-opacity:1"
     id="path16" /><path
     class="bond-4 atom-4 atom-5"
     d="M 67.0,88.5 L 57.9,94.2"
     style="fill:none;fill-rule:evenodd;stroke:#000000;stroke-width:2.0px;stroke-linecap:butt;stroke-linejoin:miter;stroke-opacity:1"
     id="path18" /><path
     class="bond-4 atom-4 atom-5"
     d="M 78.1,86.2 L 70.2,91.1"
     style="fill:none;fill-rule:evenodd;stroke:#0000FF;stroke-width:2.0px;stroke-linecap:butt;stroke-linejoin:miter;stroke-opacity:1"
     id="path20" /><path
     class="bond-4 atom-4 atom-5"
     d="M 70.2,91.1 L 62.3,96.0"
     style="fill:none;fill-rule:evenodd;stroke:#000000;stroke-width:2.0px;stroke-linecap:butt;stroke-linejoin:miter;stroke-opacity:1"
     id="path22" /><path
     class="bond-5 atom-5 atom-6"
     d="M 57.9,94.2 L 60.4,104.4"
     style="fill:none;fill-rule:evenodd;stroke:#000000;stroke-width:2.0px;stroke-linecap:butt;stroke-linejoin:miter;stroke-opacity:1"
     id="path24" /><path
     class="bond-5 atom-5 atom-6"
     d="M 60.4,104.4 L 62.9,114.7"
     style="fill:none;fill-rule:evenodd;stroke:#CCCC00;stroke-width:2.0px;stroke-linecap:butt;stroke-linejoin:miter;stroke-opacity:1"
     id="path26" /><path
     class="bond-6 atom-6 atom-0"
     d="M 67.2,119.4 L 78.4,120.2"
     style="fill:none;fill-rule:evenodd;stroke:#CCCC00;stroke-width:2.0px;stroke-linecap:butt;stroke-linejoin:miter;stroke-opacity:1"
     id="path28" /><path
     class="bond-6 atom-6 atom-0"
     d="M 78.4,120.2 L 89.7,121.0"
     style="fill:none;fill-rule:evenodd;stroke:#000000;stroke-width:2.0px;stroke-linecap:butt;stroke-linejoin:miter;stroke-opacity:1"
     id="path30" /><path
     d="M 90.1,119.8 L 89.7,121.0 L 89.1,121.0"
     style="fill:none;stroke:#000000;stroke-width:2.0px;stroke-linecap:butt;stroke-linejoin:miter;stroke-opacity:1;"
     id="path32" /><path
     d="M 123.1,91.4 L 124.3,91.1 L 125.2,92.0"
     style="fill:none;stroke:#000000;stroke-width:2.0px;stroke-linecap:butt;stroke-linejoin:miter;stroke-opacity:1;"
     id="path34" /><path
     d="M 58.3,93.9 L 57.9,94.2 L 58.0,94.7"
     style="fill:none;stroke:#000000;stroke-width:2.0px;stroke-linecap:butt;stroke-linejoin:miter;stroke-opacity:1;"
     id="path36" /><path
     class="atom-4"
     d="M 78.1 77.0 L 80.5 80.9 Q 80.7 81.2, 81.1 81.9 Q 81.5 82.6, 81.5 82.7 L 81.5 77.0 L 82.5 77.0 L 82.5 84.3 L 81.5 84.3 L 78.9 80.1 Q 78.6 79.6, 78.3 79.0 Q 78.0 78.4, 77.9 78.3 L 77.9 84.3 L 77.0 84.3 L 77.0 77.0 L 78.1 77.0 "
     fill="#0000FF"
     id="path38" /><path
     class="atom-6"
     d="M 62.0 121.7 Q 62.0 121.7, 62.4 121.8 Q 62.7 122.0, 63.1 122.1 Q 63.5 122.2, 63.8 122.2 Q 64.5 122.2, 64.9 121.8 Q 65.3 121.5, 65.3 120.9 Q 65.3 120.5, 65.1 120.3 Q 64.9 120.0, 64.6 119.9 Q 64.3 119.7, 63.8 119.6 Q 63.2 119.4, 62.8 119.2 Q 62.4 119.0, 62.1 118.6 Q 61.8 118.2, 61.8 117.6 Q 61.8 116.7, 62.5 116.1 Q 63.1 115.5, 64.3 115.5 Q 65.2 115.5, 66.1 115.9 L 65.9 116.7 Q 65.0 116.4, 64.3 116.4 Q 63.6 116.4, 63.2 116.7 Q 62.9 117.0, 62.9 117.5 Q 62.9 117.9, 63.1 118.1 Q 63.3 118.3, 63.6 118.5 Q 63.9 118.6, 64.3 118.7 Q 65.0 119.0, 65.4 119.2 Q 65.8 119.4, 66.1 119.8 Q 66.4 120.2, 66.4 120.9 Q 66.4 121.9, 65.7 122.5 Q 65.0 123.0, 63.9 123.0 Q 63.2 123.0, 62.7 122.8 Q 62.3 122.7, 61.7 122.5 L 62.0 121.7 "
     fill="#CCCC00"
     id="path40" /></g>












































<g
   id="g3177"><path
     class="bond-0 atom-0 atom-1"
     d="M 233.1,87.7 L 249.2,107.8"
     style="fill:none;fill-rule:evenodd;stroke:#000000;stroke-width:2.0px;stroke-linecap:butt;stroke-linejoin:miter;stroke-opacity:1"
     id="path42" /><path
     class="bond-1 atom-1 atom-2"
     d="M 249.2,107.8 L 260.1,106.1"
     style="fill:none;fill-rule:evenodd;stroke:#000000;stroke-width:2.0px;stroke-linecap:butt;stroke-linejoin:miter;stroke-opacity:1"
     id="path44" /><path
     class="bond-1 atom-1 atom-2"
     d="M 260.1,106.1 L 271.0,104.4"
     style="fill:none;fill-rule:evenodd;stroke:#0000FF;stroke-width:2.0px;stroke-linecap:butt;stroke-linejoin:miter;stroke-opacity:1"
     id="path46" /><path
     class="bond-2 atom-2 atom-3"
     d="M 278.2,108.4 L 284.4,116.2"
     style="fill:none;fill-rule:evenodd;stroke:#0000FF;stroke-width:2.0px;stroke-linecap:butt;stroke-linejoin:miter;stroke-opacity:1"
     id="path48" /><path
     class="bond-2 atom-2 atom-3"
     d="M 284.4,116.2 L 290.6,124.0"
     style="fill:none;fill-rule:evenodd;stroke:#000000;stroke-width:2.0px;stroke-linecap:butt;stroke-linejoin:miter;stroke-opacity:1"
     id="path50" /><path
     class="bond-3 atom-3 atom-4"
     d="M 289.2,122.2 L 285.2,132.5"
     style="fill:none;fill-rule:evenodd;stroke:#000000;stroke-width:2.0px;stroke-linecap:butt;stroke-linejoin:miter;stroke-opacity:1"
     id="path52" /><path
     class="bond-3 atom-3 atom-4"
     d="M 285.2,132.5 L 281.2,142.7"
     style="fill:none;fill-rule:evenodd;stroke:#FF0000;stroke-width:2.0px;stroke-linecap:butt;stroke-linejoin:miter;stroke-opacity:1"
     id="path54" /><path
     class="bond-3 atom-3 atom-4"
     d="M 292.8,123.6 L 288.8,133.9"
     style="fill:none;fill-rule:evenodd;stroke:#000000;stroke-width:2.0px;stroke-linecap:butt;stroke-linejoin:miter;stroke-opacity:1"
     id="path56" /><path
     class="bond-3 atom-3 atom-4"
     d="M 288.8,133.9 L 284.8,144.1"
     style="fill:none;fill-rule:evenodd;stroke:#FF0000;stroke-width:2.0px;stroke-linecap:butt;stroke-linejoin:miter;stroke-opacity:1"
     id="path58" /><path
     class="bond-4 atom-3 atom-5"
     d="M 290.6,124.0 L 316.1,120.1"
     style="fill:none;fill-rule:evenodd;stroke:#000000;stroke-width:2.0px;stroke-linecap:butt;stroke-linejoin:miter;stroke-opacity:1"
     id="path60" /><path
     class="bond-5 atom-5 atom-6"
     d="M 316.1,120.1 L 332.1,140.2"
     style="fill:none;fill-rule:evenodd;stroke:#000000;stroke-width:2.0px;stroke-linecap:butt;stroke-linejoin:miter;stroke-opacity:1"
     id="path62" /><path
     class="bond-6 atom-6 atom-7"
     d="M 332.1,140.2 L 357.5,136.3"
     style="fill:none;fill-rule:evenodd;stroke:#000000;stroke-width:2.0px;stroke-linecap:butt;stroke-linejoin:miter;stroke-opacity:1"
     id="path64" /><path
     class="bond-6 atom-6 atom-7"
     d="M 333.7,136.0 L 354.7,132.9"
     style="fill:none;fill-rule:evenodd;stroke:#000000;stroke-width:2.0px;stroke-linecap:butt;stroke-linejoin:miter;stroke-opacity:1"
     id="path66" /><path
     class="bond-7 atom-7 atom-8"
     d="M 357.5,136.3 L 366.9,112.4"
     style="fill:none;fill-rule:evenodd;stroke:#000000;stroke-width:2.0px;stroke-linecap:butt;stroke-linejoin:miter;stroke-opacity:1"
     id="path68" /><path
     class="bond-8 atom-8 atom-9"
     d="M 366.9,112.4 L 350.8,92.3"
     style="fill:none;fill-rule:evenodd;stroke:#000000;stroke-width:2.0px;stroke-linecap:butt;stroke-linejoin:miter;stroke-opacity:1"
     id="path70" /><path
     class="bond-8 atom-8 atom-9"
     d="M 362.5,113.1 L 349.2,96.5"
     style="fill:none;fill-rule:evenodd;stroke:#000000;stroke-width:2.0px;stroke-linecap:butt;stroke-linejoin:miter;stroke-opacity:1"
     id="path72" /><path
     class="bond-9 atom-9 atom-10"
     d="M 350.8,92.3 L 360.2,68.4"
     style="fill:none;fill-rule:evenodd;stroke:#000000;stroke-width:2.0px;stroke-linecap:butt;stroke-linejoin:miter;stroke-opacity:1"
     id="path74" /><path
     class="bond-10 atom-10 atom-11"
     d="M 360.2,68.4 L 344.1,48.3"
     style="fill:none;fill-rule:evenodd;stroke:#000000;stroke-width:2.0px;stroke-linecap:butt;stroke-linejoin:miter;stroke-opacity:1"
     id="path76" /><path
     class="bond-10 atom-10 atom-11"
     d="M 355.8,69.0 L 342.5,52.4"
     style="fill:none;fill-rule:evenodd;stroke:#000000;stroke-width:2.0px;stroke-linecap:butt;stroke-linejoin:miter;stroke-opacity:1"
     id="path78" /><path
     class="bond-11 atom-11 atom-12"
     d="M 344.1,48.3 L 318.7,52.2"
     style="fill:none;fill-rule:evenodd;stroke:#000000;stroke-width:2.0px;stroke-linecap:butt;stroke-linejoin:miter;stroke-opacity:1"
     id="path80" /><path
     class="bond-12 atom-12 atom-13"
     d="M 318.7,52.2 L 309.4,76.1"
     style="fill:none;fill-rule:evenodd;stroke:#000000;stroke-width:2.0px;stroke-linecap:butt;stroke-linejoin:miter;stroke-opacity:1"
     id="path82" /><path
     class="bond-12 atom-12 atom-13"
     d="M 321.5,55.6 L 313.8,75.4"
     style="fill:none;fill-rule:evenodd;stroke:#000000;stroke-width:2.0px;stroke-linecap:butt;stroke-linejoin:miter;stroke-opacity:1"
     id="path84" /><path
     class="bond-13 atom-13 atom-14"
     d="M 309.4,76.1 L 325.4,96.2"
     style="fill:none;fill-rule:evenodd;stroke:#000000;stroke-width:2.0px;stroke-linecap:butt;stroke-linejoin:miter;stroke-opacity:1"
     id="path86" /><path
     class="bond-14 atom-13 atom-15"
     d="M 309.4,76.1 L 283.9,80.0"
     style="fill:none;fill-rule:evenodd;stroke:#000000;stroke-width:2.0px;stroke-linecap:butt;stroke-linejoin:miter;stroke-opacity:1"
     id="path88" /><path
     class="bond-15 atom-15 atom-16"
     d="M 286.2,79.6 L 279.6,71.5"
     style="fill:none;fill-rule:evenodd;stroke:#000000;stroke-width:2.0px;stroke-linecap:butt;stroke-linejoin:miter;stroke-opacity:1"
     id="path90" /><path
     class="bond-15 atom-15 atom-16"
     d="M 279.6,71.5 L 273.1,63.3"
     style="fill:none;fill-rule:evenodd;stroke:#FF0000;stroke-width:2.0px;stroke-linecap:butt;stroke-linejoin:miter;stroke-opacity:1"
     id="path92" /><path
     class="bond-15 atom-15 atom-16"
     d="M 283.1,82.0 L 276.6,73.9"
     style="fill:none;fill-rule:evenodd;stroke:#000000;stroke-width:2.0px;stroke-linecap:butt;stroke-linejoin:miter;stroke-opacity:1"
     id="path94" /><path
     class="bond-15 atom-15 atom-16"
     d="M 276.6,73.9 L 270.1,65.7"
     style="fill:none;fill-rule:evenodd;stroke:#FF0000;stroke-width:2.0px;stroke-linecap:butt;stroke-linejoin:miter;stroke-opacity:1"
     id="path96" /><path
     class="bond-16 atom-15 atom-2"
     d="M 283.9,80.0 L 280.1,89.7"
     style="fill:none;fill-rule:evenodd;stroke:#000000;stroke-width:2.0px;stroke-linecap:butt;stroke-linejoin:miter;stroke-opacity:1"
     id="path98" /><path
     class="bond-16 atom-15 atom-2"
     d="M 280.1,89.7 L 276.3,99.4"
     style="fill:none;fill-rule:evenodd;stroke:#0000FF;stroke-width:2.0px;stroke-linecap:butt;stroke-linejoin:miter;stroke-opacity:1"
     id="path100" /><path
     class="bond-17 atom-14 atom-5"
     d="M 325.4,96.2 L 316.1,120.1"
     style="fill:none;fill-rule:evenodd;stroke:#000000;stroke-width:2.0px;stroke-linecap:butt;stroke-linejoin:miter;stroke-opacity:1"
     id="path102" /><path
     class="bond-17 atom-14 atom-5"
     d="M 328.2,99.7 L 320.5,119.4"
     style="fill:none;fill-rule:evenodd;stroke:#000000;stroke-width:2.0px;stroke-linecap:butt;stroke-linejoin:miter;stroke-opacity:1"
     id="path104" /><path
     class="bond-18 atom-14 atom-9"
     d="M 325.4,96.2 L 350.8,92.3"
     style="fill:none;fill-rule:evenodd;stroke:#000000;stroke-width:2.0px;stroke-linecap:butt;stroke-linejoin:miter;stroke-opacity:1"
     id="path106" /><path
     d="M 248.4,106.7 L 249.2,107.8 L 249.7,107.7"
     style="fill:none;stroke:#000000;stroke-width:2.0px;stroke-linecap:butt;stroke-linejoin:miter;stroke-opacity:1;"
     id="path108" /><path
     d="M 290.3,123.6 L 290.6,124.0 L 291.9,123.8"
     style="fill:none;stroke:#000000;stroke-width:2.0px;stroke-linecap:butt;stroke-linejoin:miter;stroke-opacity:1;"
     id="path110" /><path
     d="M 331.3,139.2 L 332.1,140.2 L 333.4,140.0"
     style="fill:none;stroke:#000000;stroke-width:2.0px;stroke-linecap:butt;stroke-linejoin:miter;stroke-opacity:1;"
     id="path112" /><path
     d="M 356.2,136.5 L 357.5,136.3 L 358.0,135.1"
     style="fill:none;stroke:#000000;stroke-width:2.0px;stroke-linecap:butt;stroke-linejoin:miter;stroke-opacity:1;"
     id="path114" /><path
     d="M 366.4,113.6 L 366.9,112.4 L 366.1,111.4"
     style="fill:none;stroke:#000000;stroke-width:2.0px;stroke-linecap:butt;stroke-linejoin:miter;stroke-opacity:1;"
     id="path116" /><path
     d="M 359.7,69.6 L 360.2,68.4 L 359.4,67.4"
     style="fill:none;stroke:#000000;stroke-width:2.0px;stroke-linecap:butt;stroke-linejoin:miter;stroke-opacity:1;"
     id="path118" /><path
     d="M 345.0,49.3 L 344.1,48.3 L 342.9,48.5"
     style="fill:none;stroke:#000000;stroke-width:2.0px;stroke-linecap:butt;stroke-linejoin:miter;stroke-opacity:1;"
     id="path120" /><path
     d="M 320.0,52.0 L 318.7,52.2 L 318.3,53.3"
     style="fill:none;stroke:#000000;stroke-width:2.0px;stroke-linecap:butt;stroke-linejoin:miter;stroke-opacity:1;"
     id="path122" /><path
     d="M 285.2,79.8 L 283.9,80.0 L 283.8,80.4"
     style="fill:none;stroke:#000000;stroke-width:2.0px;stroke-linecap:butt;stroke-linejoin:miter;stroke-opacity:1;"
     id="path124" /><path
     class="atom-2"
     d="M 273.0 100.3 L 275.4 104.1 Q 275.6 104.5, 276.0 105.2 Q 276.4 105.9, 276.4 105.9 L 276.4 100.3 L 277.3 100.3 L 277.3 107.5 L 276.3 107.5 L 273.8 103.3 Q 273.5 102.8, 273.2 102.3 Q 272.9 101.7, 272.8 101.5 L 272.8 107.5 L 271.8 107.5 L 271.8 100.3 L 273.0 100.3 "
     fill="#0000FF"
     id="path126" /><path
     class="atom-4"
     d="M 277.9 147.9 Q 277.9 146.2, 278.8 145.2 Q 279.7 144.2, 281.3 144.2 Q 282.9 144.2, 283.7 145.2 Q 284.6 146.2, 284.6 147.9 Q 284.6 149.7, 283.7 150.7 Q 282.9 151.7, 281.3 151.7 Q 279.7 151.7, 278.8 150.7 Q 277.9 149.7, 277.9 147.9 M 281.3 150.9 Q 282.4 150.9, 283.0 150.1 Q 283.6 149.4, 283.6 147.9 Q 283.6 146.5, 283.0 145.8 Q 282.4 145.1, 281.3 145.1 Q 280.2 145.1, 279.6 145.8 Q 279.0 146.5, 279.0 147.9 Q 279.0 149.4, 279.6 150.1 Q 280.2 150.9, 281.3 150.9 "
     fill="#FF0000"
     id="path128" /><path
     class="atom-16"
     d="M 264.6 59.9 Q 264.6 58.1, 265.4 57.2 Q 266.3 56.2, 267.9 56.2 Q 269.5 56.2, 270.4 57.2 Q 271.2 58.1, 271.2 59.9 Q 271.2 61.7, 270.4 62.7 Q 269.5 63.7, 267.9 63.7 Q 266.3 63.7, 265.4 62.7 Q 264.6 61.7, 264.6 59.9 M 267.9 62.8 Q 269.0 62.8, 269.6 62.1 Q 270.2 61.4, 270.2 59.9 Q 270.2 58.5, 269.6 57.7 Q 269.0 57.0, 267.9 57.0 Q 266.8 57.0, 266.2 57.7 Q 265.6 58.5, 265.6 59.9 Q 265.6 61.4, 266.2 62.1 Q 266.8 62.8, 267.9 62.8 "
     fill="#FF0000"
     id="path130" /></g>
<path
   class="bond-0 atom-0 atom-1"
   d="M 464.3,123.5 L 473.7,99.6"
   style="fill:none;fill-rule:evenodd;stroke:#000000;stroke-width:2.0px;stroke-linecap:butt;stroke-linejoin:miter;stroke-opacity:1"
   id="path132" />
<path
   class="bond-0 atom-0 atom-1"
   d="M 461.7,119.5 L 469.1,100.8"
   style="fill:none;fill-rule:evenodd;stroke:#000000;stroke-width:2.0px;stroke-linecap:butt;stroke-linejoin:miter;stroke-opacity:1"
   id="path134" />
<path
   class="bond-1 atom-1 atom-2"
   d="M 473.7,99.6 L 498.6,93.2"
   style="fill:none;fill-rule:evenodd;stroke:#000000;stroke-width:2.0px;stroke-linecap:butt;stroke-linejoin:miter;stroke-opacity:1"
   id="path136" />
<path
   class="bond-2 atom-2 atom-3"
   d="M 498.6,93.2 L 508.1,69.3"
   style="fill:none;fill-rule:evenodd;stroke:#000000;stroke-width:2.0px;stroke-linecap:butt;stroke-linejoin:miter;stroke-opacity:1"
   id="path138" />
<path
   class="bond-2 atom-2 atom-3"
   d="M 503.2,92.0 L 510.6,73.3"
   style="fill:none;fill-rule:evenodd;stroke:#000000;stroke-width:2.0px;stroke-linecap:butt;stroke-linejoin:miter;stroke-opacity:1"
   id="path140" />
<path
   class="bond-3 atom-3 atom-4"
   d="M 508.1,69.3 L 533.7,70.9"
   style="fill:none;fill-rule:evenodd;stroke:#000000;stroke-width:2.0px;stroke-linecap:butt;stroke-linejoin:miter;stroke-opacity:1"
   id="path142" />
<path
   class="bond-4 atom-4 atom-5"
   d="M 533.7,70.9 L 540.1,95.8"
   style="fill:none;fill-rule:evenodd;stroke:#000000;stroke-width:2.0px;stroke-linecap:butt;stroke-linejoin:miter;stroke-opacity:1"
   id="path144" />
<path
   class="bond-4 atom-4 atom-5"
   d="M 530.7,74.6 L 535.7,94.1"
   style="fill:none;fill-rule:evenodd;stroke:#000000;stroke-width:2.0px;stroke-linecap:butt;stroke-linejoin:miter;stroke-opacity:1"
   id="path146" />


<path
   class="bond-7 atom-5 atom-8"
   d="M 540.1,95.8 L 530.9,101.7"
   style="fill:none;fill-rule:evenodd;stroke:#000000;stroke-width:2.0px;stroke-linecap:butt;stroke-linejoin:miter;stroke-opacity:1"
   id="path152" />
<path
   class="bond-7 atom-5 atom-8"
   d="M 530.9,101.7 L 521.6,107.6"
   style="fill:none;fill-rule:evenodd;stroke:#CCCC00;stroke-width:2.0px;stroke-linecap:butt;stroke-linejoin:miter;stroke-opacity:1"
   id="path154" />
<path
   class="bond-8 atom-1 atom-9"
   d="M 473.7,99.6 L 453.9,83.3"
   style="fill:none;fill-rule:evenodd;stroke:#000000;stroke-width:2.0px;stroke-linecap:butt;stroke-linejoin:miter;stroke-opacity:1"
   id="path156" />
<path
   class="bond-9 atom-9 atom-10"
   d="M 453.9,83.3 L 432.2,97.1"
   style="fill:none;fill-rule:evenodd;stroke:#000000;stroke-width:2.0px;stroke-linecap:butt;stroke-linejoin:miter;stroke-opacity:1"
   id="path158" />
<path
   class="bond-9 atom-9 atom-10"
   d="M 453.6,88.0 L 436.6,98.8"
   style="fill:none;fill-rule:evenodd;stroke:#000000;stroke-width:2.0px;stroke-linecap:butt;stroke-linejoin:miter;stroke-opacity:1"
   id="path160" />
<path
   class="bond-10 atom-10 atom-11"
   d="M 432.2,97.1 L 434.8,107.3"
   style="fill:none;fill-rule:evenodd;stroke:#000000;stroke-width:2.0px;stroke-linecap:butt;stroke-linejoin:miter;stroke-opacity:1"
   id="path162" />
<path
   class="bond-10 atom-10 atom-11"
   d="M 434.8,107.3 L 437.5,117.5"
   style="fill:none;fill-rule:evenodd;stroke:#CCCC00;stroke-width:2.0px;stroke-linecap:butt;stroke-linejoin:miter;stroke-opacity:1"
   id="path164" />
<path
   class="bond-11 atom-11 atom-0"
   d="M 441.8,122.1 L 453.0,122.8"
   style="fill:none;fill-rule:evenodd;stroke:#CCCC00;stroke-width:2.0px;stroke-linecap:butt;stroke-linejoin:miter;stroke-opacity:1"
   id="path166" />
<path
   class="bond-11 atom-11 atom-0"
   d="M 453.0,122.8 L 464.3,123.5"
   style="fill:none;fill-rule:evenodd;stroke:#000000;stroke-width:2.0px;stroke-linecap:butt;stroke-linejoin:miter;stroke-opacity:1"
   id="path168" />
<path
   class="bond-12 atom-8 atom-2"
   d="M 515.2,107.0 L 506.9,100.1"
   style="fill:none;fill-rule:evenodd;stroke:#CCCC00;stroke-width:2.0px;stroke-linecap:butt;stroke-linejoin:miter;stroke-opacity:1"
   id="path170" />
<path
   class="bond-12 atom-8 atom-2"
   d="M 506.9,100.1 L 498.6,93.2"
   style="fill:none;fill-rule:evenodd;stroke:#000000;stroke-width:2.0px;stroke-linecap:butt;stroke-linejoin:miter;stroke-opacity:1"
   id="path172" />
<path
   d="M 464.7,122.3 L 464.3,123.5 L 463.7,123.5"
   style="fill:none;stroke:#000000;stroke-width:2.0px;stroke-linecap:butt;stroke-linejoin:miter;stroke-opacity:1;"
   id="path174" />
<path
   d="M 507.6,70.5 L 508.1,69.3 L 509.3,69.4"
   style="fill:none;stroke:#000000;stroke-width:2.0px;stroke-linecap:butt;stroke-linejoin:miter;stroke-opacity:1;"
   id="path176" />
<path
   d="M 532.4,70.8 L 533.7,70.9 L 534.0,72.2"
   style="fill:none;stroke:#000000;stroke-width:2.0px;stroke-linecap:butt;stroke-linejoin:miter;stroke-opacity:1;"
   id="path178" />

<path
   d="M 454.9,84.1 L 453.9,83.3 L 452.8,84.0"
   style="fill:none;stroke:#000000;stroke-width:2.0px;stroke-linecap:butt;stroke-linejoin:miter;stroke-opacity:1;"
   id="path182" />
<path
   d="M 433.3,96.4 L 432.2,97.1 L 432.3,97.6"
   style="fill:none;stroke:#000000;stroke-width:2.0px;stroke-linecap:butt;stroke-linejoin:miter;stroke-opacity:1;"
   id="path184" />
<path
   class="atom-8"
   d="M 516.4 112.1 Q 516.5 112.1, 516.8 112.3 Q 517.1 112.4, 517.5 112.5 Q 517.9 112.6, 518.3 112.6 Q 518.9 112.6, 519.3 112.3 Q 519.7 111.9, 519.7 111.3 Q 519.7 110.9, 519.5 110.7 Q 519.3 110.4, 519.0 110.3 Q 518.7 110.2, 518.2 110.0 Q 517.6 109.8, 517.2 109.6 Q 516.8 109.5, 516.5 109.1 Q 516.2 108.7, 516.2 108.0 Q 516.2 107.1, 516.9 106.5 Q 517.5 106.0, 518.7 106.0 Q 519.6 106.0, 520.5 106.4 L 520.3 107.2 Q 519.4 106.8, 518.8 106.8 Q 518.0 106.8, 517.7 107.1 Q 517.3 107.4, 517.3 107.9 Q 517.3 108.3, 517.5 108.5 Q 517.7 108.8, 518.0 108.9 Q 518.3 109.0, 518.8 109.2 Q 519.4 109.4, 519.8 109.6 Q 520.2 109.8, 520.5 110.2 Q 520.8 110.6, 520.8 111.3 Q 520.8 112.3, 520.1 112.9 Q 519.4 113.4, 518.3 113.4 Q 517.6 113.4, 517.2 113.3 Q 516.7 113.1, 516.1 112.9 L 516.4 112.1 "
   fill="#CCCC00"
   id="path186" />
<path
   class="atom-11"
   d="M 436.5 124.4 Q 436.6 124.5, 437.0 124.6 Q 437.3 124.8, 437.7 124.9 Q 438.1 124.9, 438.4 124.9 Q 439.1 124.9, 439.5 124.6 Q 439.9 124.3, 439.9 123.7 Q 439.9 123.3, 439.7 123.0 Q 439.5 122.8, 439.2 122.7 Q 438.9 122.5, 438.4 122.4 Q 437.7 122.2, 437.4 122.0 Q 437.0 121.8, 436.7 121.4 Q 436.4 121.0, 436.4 120.4 Q 436.4 119.4, 437.0 118.9 Q 437.7 118.3, 438.9 118.3 Q 439.7 118.3, 440.7 118.7 L 440.5 119.5 Q 439.6 119.2, 438.9 119.2 Q 438.2 119.2, 437.8 119.4 Q 437.4 119.7, 437.5 120.2 Q 437.5 120.6, 437.6 120.9 Q 437.9 121.1, 438.1 121.2 Q 438.4 121.4, 438.9 121.5 Q 439.6 121.7, 440.0 121.9 Q 440.4 122.1, 440.7 122.6 Q 440.9 123.0, 440.9 123.7 Q 440.9 124.7, 440.3 125.2 Q 439.6 125.8, 438.5 125.8 Q 437.8 125.8, 437.3 125.6 Q 436.8 125.5, 436.3 125.3 L 436.5 124.4 "
   fill="#CCCC00"
   id="path188" />














































































































<g
   id="g4105"><path
     class="bond-0 atom-0 atom-1"
     d="M 277.4,348.8 L 295.3,328.5"
     style="fill:none;fill-rule:evenodd;stroke:#000000;stroke-width:2.0px;stroke-linecap:butt;stroke-linejoin:miter;stroke-opacity:1"
     id="path314" /><path
     class="bond-0 atom-0 atom-1"
     d="M 280.3,351.4 L 298.2,331.1"
     style="fill:none;fill-rule:evenodd;stroke:#000000;stroke-width:2.0px;stroke-linecap:butt;stroke-linejoin:miter;stroke-opacity:1"
     id="path316" /><path
     class="bond-1 atom-1 atom-2"
     d="M 295.8,330.8 L 321.4,333.3"
     style="fill:none;fill-rule:evenodd;stroke:#000000;stroke-width:2.0px;stroke-linecap:butt;stroke-linejoin:miter;stroke-opacity:1"
     id="path318" /><path
     class="bond-2 atom-2 atom-3"
     d="M 319.0,333.0 L 324.6,342.4"
     style="fill:none;fill-rule:evenodd;stroke:#000000;stroke-width:2.0px;stroke-linecap:butt;stroke-linejoin:miter;stroke-opacity:1"
     id="path320" /><path
     class="bond-2 atom-2 atom-3"
     d="M 324.6,342.4 L 330.2,351.8"
     style="fill:none;fill-rule:evenodd;stroke:#FF0000;stroke-width:2.0px;stroke-linecap:butt;stroke-linejoin:miter;stroke-opacity:1"
     id="path322" /><path
     class="bond-2 atom-2 atom-3"
     d="M 322.4,331.1 L 327.9,340.5"
     style="fill:none;fill-rule:evenodd;stroke:#000000;stroke-width:2.0px;stroke-linecap:butt;stroke-linejoin:miter;stroke-opacity:1"
     id="path324" /><path
     class="bond-2 atom-2 atom-3"
     d="M 327.9,340.5 L 333.5,349.9"
     style="fill:none;fill-rule:evenodd;stroke:#FF0000;stroke-width:2.0px;stroke-linecap:butt;stroke-linejoin:miter;stroke-opacity:1"
     id="path326" /><path
     class="bond-3 atom-2 atom-4"
     d="M 321.4,333.3 L 331.6,309.7"
     style="fill:none;fill-rule:evenodd;stroke:#000000;stroke-width:2.0px;stroke-linecap:butt;stroke-linejoin:miter;stroke-opacity:1"
     id="path328" /><path
     class="bond-4 atom-4 atom-5"
     d="M 331.6,309.7 L 356.0,301.5"
     style="fill:none;fill-rule:evenodd;stroke:#000000;stroke-width:2.0px;stroke-linecap:butt;stroke-linejoin:miter;stroke-opacity:1"
     id="path330" /><path
     class="bond-4 atom-4 atom-5"
     d="M 332.5,305.3 L 352.6,298.5"
     style="fill:none;fill-rule:evenodd;stroke:#000000;stroke-width:2.0px;stroke-linecap:butt;stroke-linejoin:miter;stroke-opacity:1"
     id="path332" /><path
     class="bond-5 atom-5 atom-6"
     d="M 356.0,301.5 L 364.1,308.6"
     style="fill:none;fill-rule:evenodd;stroke:#000000;stroke-width:2.0px;stroke-linecap:butt;stroke-linejoin:miter;stroke-opacity:1"
     id="path334" /><path
     class="bond-5 atom-5 atom-6"
     d="M 364.1,308.6 L 372.3,315.8"
     style="fill:none;fill-rule:evenodd;stroke:#33CCCC;stroke-width:2.0px;stroke-linecap:butt;stroke-linejoin:miter;stroke-opacity:1"
     id="path336" /><path
     class="bond-6 atom-5 atom-7"
     d="M 356.0,301.5 L 361.1,276.3"
     style="fill:none;fill-rule:evenodd;stroke:#000000;stroke-width:2.0px;stroke-linecap:butt;stroke-linejoin:miter;stroke-opacity:1"
     id="path338" /><path
     class="bond-7 atom-7 atom-8"
     d="M 361.1,276.3 L 341.8,259.3"
     style="fill:none;fill-rule:evenodd;stroke:#000000;stroke-width:2.0px;stroke-linecap:butt;stroke-linejoin:miter;stroke-opacity:1"
     id="path340" /><path
     class="bond-7 atom-7 atom-8"
     d="M 356.8,277.7 L 340.9,263.6"
     style="fill:none;fill-rule:evenodd;stroke:#000000;stroke-width:2.0px;stroke-linecap:butt;stroke-linejoin:miter;stroke-opacity:1"
     id="path342" /><path
     class="bond-8 atom-8 atom-9"
     d="M 341.8,259.3 L 317.4,267.5"
     style="fill:none;fill-rule:evenodd;stroke:#000000;stroke-width:2.0px;stroke-linecap:butt;stroke-linejoin:miter;stroke-opacity:1"
     id="path344" /><path
     class="bond-9 atom-9 atom-10"
     d="M 317.4,267.5 L 312.3,292.7"
     style="fill:none;fill-rule:evenodd;stroke:#000000;stroke-width:2.0px;stroke-linecap:butt;stroke-linejoin:miter;stroke-opacity:1"
     id="path346" /><path
     class="bond-9 atom-9 atom-10"
     d="M 320.7,270.4 L 316.5,291.2"
     style="fill:none;fill-rule:evenodd;stroke:#000000;stroke-width:2.0px;stroke-linecap:butt;stroke-linejoin:miter;stroke-opacity:1"
     id="path348" /><path
     class="bond-10 atom-10 atom-11"
     d="M 312.3,292.7 L 290.2,305.7"
     style="fill:none;fill-rule:evenodd;stroke:#000000;stroke-width:2.0px;stroke-linecap:butt;stroke-linejoin:miter;stroke-opacity:1"
     id="path350" /><path
     class="bond-11 atom-11 atom-12"
     d="M 290.2,305.7 L 266.6,295.5"
     style="fill:none;fill-rule:evenodd;stroke:#000000;stroke-width:2.0px;stroke-linecap:butt;stroke-linejoin:miter;stroke-opacity:1"
     id="path352" /><path
     class="bond-11 atom-11 atom-12"
     d="M 289.9,301.4 L 270.2,292.9"
     style="fill:none;fill-rule:evenodd;stroke:#000000;stroke-width:2.0px;stroke-linecap:butt;stroke-linejoin:miter;stroke-opacity:1"
     id="path354" /><path
     class="bond-12 atom-12 atom-13"
     d="M 266.6,295.5 L 246.0,310.9"
     style="fill:none;fill-rule:evenodd;stroke:#000000;stroke-width:2.0px;stroke-linecap:butt;stroke-linejoin:miter;stroke-opacity:1"
     id="path356" /><path
     class="bond-13 atom-13 atom-14"
     d="M 246.0,310.9 L 237.5,317.2"
     style="fill:none;fill-rule:evenodd;stroke:#000000;stroke-width:2.0px;stroke-linecap:butt;stroke-linejoin:miter;stroke-opacity:1"
     id="path358" /><path
     class="bond-13 atom-13 atom-14"
     d="M 237.5,317.2 L 228.9,323.5"
     style="fill:none;fill-rule:evenodd;stroke:#0000FF;stroke-width:2.0px;stroke-linecap:butt;stroke-linejoin:miter;stroke-opacity:1"
     id="path360" /><path
     class="bond-13 atom-13 atom-14"
     d="M 248.3,314.0 L 239.8,320.3"
     style="fill:none;fill-rule:evenodd;stroke:#000000;stroke-width:2.0px;stroke-linecap:butt;stroke-linejoin:miter;stroke-opacity:1"
     id="path362" /><path
     class="bond-13 atom-13 atom-14"
     d="M 239.8,320.3 L 231.2,326.6"
     style="fill:none;fill-rule:evenodd;stroke:#0000FF;stroke-width:2.0px;stroke-linecap:butt;stroke-linejoin:miter;stroke-opacity:1"
     id="path364" /><path
     class="bond-13 atom-13 atom-14"
     d="M 243.7,307.8 L 235.2,314.1"
     style="fill:none;fill-rule:evenodd;stroke:#000000;stroke-width:2.0px;stroke-linecap:butt;stroke-linejoin:miter;stroke-opacity:1"
     id="path366" /><path
     class="bond-13 atom-13 atom-14"
     d="M 235.2,314.1 L 226.6,320.4"
     style="fill:none;fill-rule:evenodd;stroke:#0000FF;stroke-width:2.0px;stroke-linecap:butt;stroke-linejoin:miter;stroke-opacity:1"
     id="path368" /><path
     class="bond-14 atom-12 atom-15"
     d="M 266.6,295.5 L 263.6,270.0"
     style="fill:none;fill-rule:evenodd;stroke:#000000;stroke-width:2.0px;stroke-linecap:butt;stroke-linejoin:miter;stroke-opacity:1"
     id="path370" /><path
     class="bond-15 atom-15 atom-16"
     d="M 263.6,270.0 L 262.4,259.5"
     style="fill:none;fill-rule:evenodd;stroke:#000000;stroke-width:2.0px;stroke-linecap:butt;stroke-linejoin:miter;stroke-opacity:1"
     id="path372" /><path
     class="bond-15 atom-15 atom-16"
     d="M 262.4,259.5 L 261.2,249.0"
     style="fill:none;fill-rule:evenodd;stroke:#0000FF;stroke-width:2.0px;stroke-linecap:butt;stroke-linejoin:miter;stroke-opacity:1"
     id="path374" /><path
     class="bond-15 atom-15 atom-16"
     d="M 259.8,270.4 L 258.6,259.9"
     style="fill:none;fill-rule:evenodd;stroke:#000000;stroke-width:2.0px;stroke-linecap:butt;stroke-linejoin:miter;stroke-opacity:1"
     id="path376" /><path
     class="bond-15 atom-15 atom-16"
     d="M 258.6,259.9 L 257.4,249.4"
     style="fill:none;fill-rule:evenodd;stroke:#0000FF;stroke-width:2.0px;stroke-linecap:butt;stroke-linejoin:miter;stroke-opacity:1"
     id="path378" /><path
     class="bond-15 atom-15 atom-16"
     d="M 267.5,269.6 L 266.3,259.0"
     style="fill:none;fill-rule:evenodd;stroke:#000000;stroke-width:2.0px;stroke-linecap:butt;stroke-linejoin:miter;stroke-opacity:1"
     id="path380" /><path
     class="bond-15 atom-15 atom-16"
     d="M 266.3,259.0 L 265.0,248.5"
     style="fill:none;fill-rule:evenodd;stroke:#0000FF;stroke-width:2.0px;stroke-linecap:butt;stroke-linejoin:miter;stroke-opacity:1"
     id="path382" /><path
     class="bond-16 atom-11 atom-1"
     d="M 290.2,305.7 L 295.8,330.8"
     style="fill:none;fill-rule:evenodd;stroke:#000000;stroke-width:2.0px;stroke-linecap:butt;stroke-linejoin:miter;stroke-opacity:1"
     id="path384" /><path
     class="bond-17 atom-10 atom-4"
     d="M 312.3,292.7 L 331.6,309.7"
     style="fill:none;fill-rule:evenodd;stroke:#000000;stroke-width:2.0px;stroke-linecap:butt;stroke-linejoin:miter;stroke-opacity:1"
     id="path386" /><path
     d="M 297.1,331.0 L 295.8,330.8 L 295.5,329.6"
     style="fill:none;stroke:#000000;stroke-width:2.0px;stroke-linecap:butt;stroke-linejoin:miter;stroke-opacity:1;"
     id="path388" /><path
     d="M 320.1,333.1 L 321.4,333.3 L 321.9,332.1"
     style="fill:none;stroke:#000000;stroke-width:2.0px;stroke-linecap:butt;stroke-linejoin:miter;stroke-opacity:1;"
     id="path390" /><path
     d="M 360.8,277.5 L 361.1,276.3 L 360.1,275.4"
     style="fill:none;stroke:#000000;stroke-width:2.0px;stroke-linecap:butt;stroke-linejoin:miter;stroke-opacity:1;"
     id="path392" /><path
     d="M 342.7,260.1 L 341.8,259.3 L 340.5,259.7"
     style="fill:none;stroke:#000000;stroke-width:2.0px;stroke-linecap:butt;stroke-linejoin:miter;stroke-opacity:1;"
     id="path394" /><path
     d="M 318.6,267.0 L 317.4,267.5 L 317.1,268.7"
     style="fill:none;stroke:#000000;stroke-width:2.0px;stroke-linecap:butt;stroke-linejoin:miter;stroke-opacity:1;"
     id="path396" /><path
     d="M 247.0,310.1 L 246.0,310.9 L 245.5,311.2"
     style="fill:none;stroke:#000000;stroke-width:2.0px;stroke-linecap:butt;stroke-linejoin:miter;stroke-opacity:1;"
     id="path398" /><path
     d="M 263.8,271.3 L 263.6,270.0 L 263.6,269.5"
     style="fill:none;stroke:#000000;stroke-width:2.0px;stroke-linecap:butt;stroke-linejoin:miter;stroke-opacity:1;"
     id="path400" /><path
     class="atom-3"
     d="M 331.2 355.4 Q 331.2 353.6, 332.0 352.7 Q 332.9 351.7, 334.5 351.7 Q 336.1 351.7, 337.0 352.7 Q 337.8 353.6, 337.8 355.4 Q 337.8 357.2, 337.0 358.2 Q 336.1 359.2, 334.5 359.2 Q 332.9 359.2, 332.0 358.2 Q 331.2 357.2, 331.2 355.4 M 334.5 358.3 Q 335.6 358.3, 336.2 357.6 Q 336.8 356.9, 336.8 355.4 Q 336.8 354.0, 336.2 353.2 Q 335.6 352.5, 334.5 352.5 Q 333.4 352.5, 332.8 353.2 Q 332.2 354.0, 332.2 355.4 Q 332.2 356.9, 332.8 357.6 Q 333.4 358.3, 334.5 358.3 "
     fill="#FF0000"
     id="path402" /><path
     class="atom-6"
     d="M 373.1 314.8 L 377.4 314.8 L 377.4 315.6 L 374.1 315.6 L 374.1 317.9 L 377.1 317.9 L 377.1 318.7 L 374.1 318.7 L 374.1 322.1 L 373.1 322.1 L 373.1 314.8 "
     fill="#33CCCC"
     id="path404" /><path
     class="atom-14"
     d="M 223.7 322.6 L 226.1 326.4 Q 226.3 326.8, 226.7 327.5 Q 227.1 328.2, 227.1 328.2 L 227.1 322.6 L 228.1 322.6 L 228.1 329.8 L 227.1 329.8 L 224.5 325.6 Q 224.2 325.1, 223.9 324.6 Q 223.6 324.0, 223.5 323.8 L 223.5 329.8 L 222.6 329.8 L 222.6 322.6 L 223.7 322.6 "
     fill="#0000FF"
     id="path406" /><path
     class="atom-16"
     d="M 259.1 240.8 L 261.5 244.7 Q 261.7 245.1, 262.1 245.8 Q 262.5 246.4, 262.5 246.5 L 262.5 240.8 L 263.4 240.8 L 263.4 248.1 L 262.5 248.1 L 259.9 243.9 Q 259.6 243.4, 259.3 242.8 Q 259.0 242.3, 258.9 242.1 L 258.9 248.1 L 257.9 248.1 L 257.9 240.8 L 259.1 240.8 "
     fill="#0000FF"
     id="path408" /></g><path
   class="bond-0 atom-0 atom-1"
   d="M 528.7,328.0 L 505.5,317.0"
   style="fill:none;fill-rule:evenodd;stroke:#000000;stroke-width:2.0px;stroke-linecap:butt;stroke-linejoin:miter;stroke-opacity:1"
   id="path410" />
<path
   class="bond-1 atom-1 atom-2"
   d="M 505.5,317.0 L 495.4,321.1"
   style="fill:none;fill-rule:evenodd;stroke:#000000;stroke-width:2.0px;stroke-linecap:butt;stroke-linejoin:miter;stroke-opacity:1"
   id="path412" />
<path
   class="bond-1 atom-1 atom-2"
   d="M 495.4,321.1 L 485.3,325.3"
   style="fill:none;fill-rule:evenodd;stroke:#0000FF;stroke-width:2.0px;stroke-linecap:butt;stroke-linejoin:miter;stroke-opacity:1"
   id="path414" />
<path
   class="bond-1 atom-1 atom-2"
   d="M 501.4,314.5 L 492.6,318.1"
   style="fill:none;fill-rule:evenodd;stroke:#000000;stroke-width:2.0px;stroke-linecap:butt;stroke-linejoin:miter;stroke-opacity:1"
   id="path416" />
<path
   class="bond-1 atom-1 atom-2"
   d="M 492.6,318.1 L 483.8,321.8"
   style="fill:none;fill-rule:evenodd;stroke:#0000FF;stroke-width:2.0px;stroke-linecap:butt;stroke-linejoin:miter;stroke-opacity:1"
   id="path418" />
<path
   class="bond-2 atom-2 atom-3"
   d="M 478.1,322.6 L 468.6,311.5"
   style="fill:none;fill-rule:evenodd;stroke:#0000FF;stroke-width:2.0px;stroke-linecap:butt;stroke-linejoin:miter;stroke-opacity:1"
   id="path420" />



<path
   class="bond-5 atom-3 atom-6"
   d="M 467.7,302.8 L 475.7,289.9"
   style="fill:none;fill-rule:evenodd;stroke:#0000FF;stroke-width:2.0px;stroke-linecap:butt;stroke-linejoin:miter;stroke-opacity:1"
   id="path428" />
<path
   class="bond-6 atom-6 atom-7"
   d="M 482.0,286.2 L 492.7,288.8"
   style="fill:none;fill-rule:evenodd;stroke:#0000FF;stroke-width:2.0px;stroke-linecap:butt;stroke-linejoin:miter;stroke-opacity:1"
   id="path430" />
<path
   class="bond-6 atom-6 atom-7"
   d="M 492.7,288.8 L 503.4,291.3"
   style="fill:none;fill-rule:evenodd;stroke:#000000;stroke-width:2.0px;stroke-linecap:butt;stroke-linejoin:miter;stroke-opacity:1"
   id="path432" />
<path
   class="bond-6 atom-6 atom-7"
   d="M 481.1,290.0 L 490.4,292.2"
   style="fill:none;fill-rule:evenodd;stroke:#0000FF;stroke-width:2.0px;stroke-linecap:butt;stroke-linejoin:miter;stroke-opacity:1"
   id="path434" />
<path
   class="bond-6 atom-6 atom-7"
   d="M 490.4,292.2 L 499.8,294.4"
   style="fill:none;fill-rule:evenodd;stroke:#000000;stroke-width:2.0px;stroke-linecap:butt;stroke-linejoin:miter;stroke-opacity:1"
   id="path436" />
<path
   class="bond-7 atom-7 atom-8"
   d="M 503.4,291.3 L 524.6,276.7"
   style="fill:none;fill-rule:evenodd;stroke:#000000;stroke-width:2.0px;stroke-linecap:butt;stroke-linejoin:miter;stroke-opacity:1"
   id="path438" />
<path
   class="bond-8 atom-8 atom-9"
   d="M 524.6,276.7 L 547.8,287.8"
   style="fill:none;fill-rule:evenodd;stroke:#000000;stroke-width:2.0px;stroke-linecap:butt;stroke-linejoin:miter;stroke-opacity:1"
   id="path440" />
<path
   class="bond-8 atom-8 atom-9"
   d="M 524.9,281.2 L 544.1,290.3"
   style="fill:none;fill-rule:evenodd;stroke:#000000;stroke-width:2.0px;stroke-linecap:butt;stroke-linejoin:miter;stroke-opacity:1"
   id="path442" />
<path
   class="bond-9 atom-9 atom-10"
   d="M 547.8,287.8 L 549.8,313.4"
   style="fill:none;fill-rule:evenodd;stroke:#000000;stroke-width:2.0px;stroke-linecap:butt;stroke-linejoin:miter;stroke-opacity:1"
   id="path444" />
<path
   class="bond-10 atom-10 atom-11"
   d="M 549.8,313.4 L 559.9,318.2"
   style="fill:none;fill-rule:evenodd;stroke:#000000;stroke-width:2.0px;stroke-linecap:butt;stroke-linejoin:miter;stroke-opacity:1"
   id="path446" />
<path
   class="bond-10 atom-10 atom-11"
   d="M 559.9,318.2 L 570.0,323.0"
   style="fill:none;fill-rule:evenodd;stroke:#33CCCC;stroke-width:2.0px;stroke-linecap:butt;stroke-linejoin:miter;stroke-opacity:1"
   id="path448" />
<path
   class="bond-11 atom-9 atom-12"
   d="M 547.8,287.8 L 556.9,281.5"
   style="fill:none;fill-rule:evenodd;stroke:#000000;stroke-width:2.0px;stroke-linecap:butt;stroke-linejoin:miter;stroke-opacity:1"
   id="path450" />
<path
   class="bond-11 atom-9 atom-12"
   d="M 556.9,281.5 L 565.9,275.2"
   style="fill:none;fill-rule:evenodd;stroke:#33CCCC;stroke-width:2.0px;stroke-linecap:butt;stroke-linejoin:miter;stroke-opacity:1"
   id="path452" />
<path
   class="bond-12 atom-10 atom-0"
   d="M 549.8,313.4 L 528.7,328.0"
   style="fill:none;fill-rule:evenodd;stroke:#000000;stroke-width:2.0px;stroke-linecap:butt;stroke-linejoin:miter;stroke-opacity:1"
   id="path454" />
<path
   class="bond-12 atom-10 atom-0"
   d="M 545.8,311.5 L 528.3,323.5"
   style="fill:none;fill-rule:evenodd;stroke:#000000;stroke-width:2.0px;stroke-linecap:butt;stroke-linejoin:miter;stroke-opacity:1"
   id="path456" />
<path
   class="bond-13 atom-7 atom-1"
   d="M 503.4,291.3 L 505.5,317.0"
   style="fill:none;fill-rule:evenodd;stroke:#000000;stroke-width:2.0px;stroke-linecap:butt;stroke-linejoin:miter;stroke-opacity:1"
   id="path458" />
<path
   d="M 527.5,327.4 L 528.7,328.0 L 529.7,327.3"
   style="fill:none;stroke:#000000;stroke-width:2.0px;stroke-linecap:butt;stroke-linejoin:miter;stroke-opacity:1;"
   id="path460" />

<path
   d="M 523.5,277.5 L 524.6,276.7 L 525.7,277.3"
   style="fill:none;stroke:#000000;stroke-width:2.0px;stroke-linecap:butt;stroke-linejoin:miter;stroke-opacity:1;"
   id="path464" />
<path
   class="atom-2"
   d="M 480.1 323.2 L 482.5 327.0 Q 482.7 327.4, 483.1 328.1 Q 483.5 328.8, 483.5 328.8 L 483.5 323.2 L 484.5 323.2 L 484.5 330.5 L 483.5 330.5 L 480.9 326.3 Q 480.6 325.8, 480.3 325.2 Q 480.0 324.6, 479.9 324.5 L 479.9 330.5 L 479.0 330.5 L 479.0 323.2 L 480.1 323.2 "
   fill="#0000FF"
   id="path466" />
<path
   class="atom-3"
   d="M 463.4 303.7 L 465.8 307.5 Q 466.0 307.9, 466.4 308.6 Q 466.8 309.3, 466.8 309.3 L 466.8 303.7 L 467.8 303.7 L 467.8 310.9 L 466.8 310.9 L 464.2 306.7 Q 463.9 306.2, 463.6 305.7 Q 463.3 305.1, 463.2 304.9 L 463.2 310.9 L 462.2 310.9 L 462.2 303.7 L 463.4 303.7 "
   fill="#0000FF"
   id="path468" />
<path
   class="atom-6"
   d="M 476.8 281.7 L 479.2 285.6 Q 479.4 286.0, 479.8 286.7 Q 480.2 287.3, 480.2 287.4 L 480.2 281.7 L 481.2 281.7 L 481.2 289.0 L 480.2 289.0 L 477.6 284.8 Q 477.3 284.3, 477.0 283.7 Q 476.7 283.2, 476.6 283.0 L 476.6 289.0 L 475.6 289.0 L 475.6 281.7 L 476.8 281.7 "
   fill="#0000FF"
   id="path470" />
<path
   class="atom-11"
   d="M 570.9 320.8 L 575.2 320.8 L 575.2 321.6 L 571.9 321.6 L 571.9 323.8 L 574.9 323.8 L 574.9 324.7 L 571.9 324.7 L 571.9 328.1 L 570.9 328.1 L 570.9 320.8 "
   fill="#33CCCC"
   id="path472" />
<path
   class="atom-12"
   d="M 566.8 269.5 L 571.1 269.5 L 571.1 270.4 L 567.8 270.4 L 567.8 272.6 L 570.7 272.6 L 570.7 273.4 L 567.8 273.4 L 567.8 276.8 L 566.8 276.8 L 566.8 269.5 "
   fill="#33CCCC"
   id="path474" />
</svg>
